<mxfile host="app.diagrams.net" modified="2022-05-31T14:40:54.370Z" agent="5.0 (Windows NT 10.0; Win64; x64) AppleWebKit/537.36 (KHTML, like Gecko) Chrome/101.0.4951.64 Safari/537.36 Edg/101.0.1210.53" etag="IJCDGsD-EgvoeXY-MRgx" version="18.1.3" type="github">
  <diagram id="-cFLmd5lMzrS4VOXzYuQ" name="Page-1">
    <mxGraphModel dx="391" dy="214" grid="1" gridSize="10" guides="1" tooltips="1" connect="1" arrows="1" fold="1" page="1" pageScale="1" pageWidth="827" pageHeight="1169" math="0" shadow="0">
      <root>
        <mxCell id="0" />
        <mxCell id="1" parent="0" />
        <mxCell id="SD3PxVuOXYKt10OMola7-1" value="Attacker" style="text;html=1;strokeColor=none;fillColor=none;align=center;verticalAlign=middle;whiteSpace=wrap;rounded=0;" parent="1" vertex="1">
          <mxGeometry x="290" y="130" width="60" height="30" as="geometry" />
        </mxCell>
        <mxCell id="SD3PxVuOXYKt10OMola7-2" value="DHCP Server" style="text;html=1;strokeColor=none;fillColor=none;align=center;verticalAlign=middle;whiteSpace=wrap;rounded=0;" parent="1" vertex="1">
          <mxGeometry x="400" y="130" width="80" height="30" as="geometry" />
        </mxCell>
        <mxCell id="SD3PxVuOXYKt10OMola7-3" value="" style="endArrow=none;html=1;rounded=0;" parent="1" edge="1">
          <mxGeometry width="50" height="50" relative="1" as="geometry">
            <mxPoint x="320" y="160" as="sourcePoint" />
            <mxPoint x="320" y="580" as="targetPoint" />
          </mxGeometry>
        </mxCell>
        <mxCell id="SD3PxVuOXYKt10OMola7-4" value="" style="endArrow=none;html=1;rounded=0;" parent="1" edge="1">
          <mxGeometry width="50" height="50" relative="1" as="geometry">
            <mxPoint x="439.7299999999999" y="160.00000000000006" as="sourcePoint" />
            <mxPoint x="440" y="580" as="targetPoint" />
          </mxGeometry>
        </mxCell>
        <mxCell id="SD3PxVuOXYKt10OMola7-6" value="" style="rounded=0;whiteSpace=wrap;html=1;" parent="1" vertex="1">
          <mxGeometry x="450" y="210" width="80" height="40" as="geometry" />
        </mxCell>
        <mxCell id="SD3PxVuOXYKt10OMola7-7" value="IP Pool" style="text;html=1;align=center;verticalAlign=middle;resizable=0;points=[];autosize=1;strokeColor=none;fillColor=none;" parent="1" vertex="1">
          <mxGeometry x="465" y="190" width="50" height="20" as="geometry" />
        </mxCell>
        <mxCell id="SD3PxVuOXYKt10OMola7-24" value="" style="endArrow=none;html=1;rounded=0;" parent="1" edge="1">
          <mxGeometry width="50" height="50" relative="1" as="geometry">
            <mxPoint x="450" y="230" as="sourcePoint" />
            <mxPoint x="530" y="230" as="targetPoint" />
          </mxGeometry>
        </mxCell>
        <mxCell id="SD3PxVuOXYKt10OMola7-27" value="192.168.0.2" style="text;html=1;strokeColor=none;fillColor=none;align=center;verticalAlign=middle;whiteSpace=wrap;rounded=0;" parent="1" vertex="1">
          <mxGeometry x="460" y="206" width="60" height="30" as="geometry" />
        </mxCell>
        <mxCell id="SD3PxVuOXYKt10OMola7-28" value="192.168.0.3" style="text;html=1;strokeColor=none;fillColor=none;align=center;verticalAlign=middle;whiteSpace=wrap;rounded=0;" parent="1" vertex="1">
          <mxGeometry x="460" y="226" width="60" height="30" as="geometry" />
        </mxCell>
        <mxCell id="SD3PxVuOXYKt10OMola7-32" value="" style="endArrow=classic;html=1;rounded=0;" parent="1" edge="1">
          <mxGeometry width="50" height="50" relative="1" as="geometry">
            <mxPoint x="320" y="188" as="sourcePoint" />
            <mxPoint x="440" y="188" as="targetPoint" />
          </mxGeometry>
        </mxCell>
        <mxCell id="SD3PxVuOXYKt10OMola7-33" value="&lt;font style=&quot;font-size: 11px;&quot;&gt;DHCP Discover&lt;/font&gt;" style="text;html=1;strokeColor=none;fillColor=none;align=center;verticalAlign=middle;whiteSpace=wrap;rounded=0;" parent="1" vertex="1">
          <mxGeometry x="335" y="160" width="90" height="30" as="geometry" />
        </mxCell>
        <mxCell id="SD3PxVuOXYKt10OMola7-34" value="" style="endArrow=classic;html=1;rounded=0;" parent="1" edge="1">
          <mxGeometry width="50" height="50" relative="1" as="geometry">
            <mxPoint x="440" y="252" as="sourcePoint" />
            <mxPoint x="320" y="252" as="targetPoint" />
          </mxGeometry>
        </mxCell>
        <mxCell id="SD3PxVuOXYKt10OMola7-35" value="&lt;font style=&quot;font-size: 11px;&quot;&gt;DHCP Offer&lt;br&gt;192.168.0.2&lt;br&gt;7200s&lt;br&gt;&lt;/font&gt;" style="text;html=1;strokeColor=none;fillColor=none;align=center;verticalAlign=middle;whiteSpace=wrap;rounded=0;" parent="1" vertex="1">
          <mxGeometry x="335" y="221" width="90" height="18" as="geometry" />
        </mxCell>
        <mxCell id="SD3PxVuOXYKt10OMola7-36" value="" style="endArrow=classic;html=1;rounded=0;" parent="1" edge="1">
          <mxGeometry width="50" height="50" relative="1" as="geometry">
            <mxPoint x="320" y="290" as="sourcePoint" />
            <mxPoint x="440" y="290" as="targetPoint" />
          </mxGeometry>
        </mxCell>
        <mxCell id="SD3PxVuOXYKt10OMola7-37" value="&lt;font style=&quot;font-size: 11px;&quot;&gt;DHCP Request&lt;br&gt;192.168.0.2&lt;br&gt;&lt;/font&gt;" style="text;html=1;strokeColor=none;fillColor=none;align=center;verticalAlign=middle;whiteSpace=wrap;rounded=0;" parent="1" vertex="1">
          <mxGeometry x="335" y="259" width="90" height="30" as="geometry" />
        </mxCell>
        <mxCell id="SD3PxVuOXYKt10OMola7-38" value="" style="endArrow=classic;html=1;rounded=0;" parent="1" edge="1">
          <mxGeometry width="50" height="50" relative="1" as="geometry">
            <mxPoint x="440" y="318" as="sourcePoint" />
            <mxPoint x="320" y="318" as="targetPoint" />
          </mxGeometry>
        </mxCell>
        <mxCell id="SD3PxVuOXYKt10OMola7-39" value="&lt;font style=&quot;font-size: 11px;&quot;&gt;DHCP Ack&lt;br&gt;&lt;/font&gt;" style="text;html=1;strokeColor=none;fillColor=none;align=center;verticalAlign=middle;whiteSpace=wrap;rounded=0;" parent="1" vertex="1">
          <mxGeometry x="335" y="297" width="90" height="18" as="geometry" />
        </mxCell>
        <mxCell id="SD3PxVuOXYKt10OMola7-40" value="" style="rounded=0;whiteSpace=wrap;html=1;" parent="1" vertex="1">
          <mxGeometry x="450" y="380" width="80" height="20" as="geometry" />
        </mxCell>
        <mxCell id="SD3PxVuOXYKt10OMola7-41" value="IP Pool" style="text;html=1;align=center;verticalAlign=middle;resizable=0;points=[];autosize=1;strokeColor=none;fillColor=none;" parent="1" vertex="1">
          <mxGeometry x="465" y="360" width="50" height="20" as="geometry" />
        </mxCell>
        <mxCell id="SD3PxVuOXYKt10OMola7-43" value="192.168.0.3" style="text;html=1;strokeColor=none;fillColor=none;align=center;verticalAlign=middle;whiteSpace=wrap;rounded=0;" parent="1" vertex="1">
          <mxGeometry x="460" y="376" width="60" height="30" as="geometry" />
        </mxCell>
        <mxCell id="SD3PxVuOXYKt10OMola7-45" value="" style="endArrow=classic;html=1;rounded=0;" parent="1" edge="1">
          <mxGeometry width="50" height="50" relative="1" as="geometry">
            <mxPoint x="320" y="358" as="sourcePoint" />
            <mxPoint x="440" y="358" as="targetPoint" />
          </mxGeometry>
        </mxCell>
        <mxCell id="SD3PxVuOXYKt10OMola7-46" value="" style="endArrow=classic;html=1;rounded=0;" parent="1" edge="1">
          <mxGeometry width="50" height="50" relative="1" as="geometry">
            <mxPoint x="440" y="423" as="sourcePoint" />
            <mxPoint x="320" y="423" as="targetPoint" />
          </mxGeometry>
        </mxCell>
        <mxCell id="SD3PxVuOXYKt10OMola7-47" value="&lt;font style=&quot;font-size: 11px;&quot;&gt;DHCP Offer&lt;br&gt;192.168.0.3&lt;br&gt;7200s&lt;br&gt;&lt;/font&gt;" style="text;html=1;strokeColor=none;fillColor=none;align=center;verticalAlign=middle;whiteSpace=wrap;rounded=0;" parent="1" vertex="1">
          <mxGeometry x="335" y="391" width="90" height="18" as="geometry" />
        </mxCell>
        <mxCell id="SD3PxVuOXYKt10OMola7-48" value="" style="endArrow=classic;html=1;rounded=0;" parent="1" edge="1">
          <mxGeometry width="50" height="50" relative="1" as="geometry">
            <mxPoint x="320" y="460" as="sourcePoint" />
            <mxPoint x="440" y="460" as="targetPoint" />
          </mxGeometry>
        </mxCell>
        <mxCell id="SD3PxVuOXYKt10OMola7-49" value="&lt;font style=&quot;font-size: 11px;&quot;&gt;DHCP Request&lt;br&gt;192.168.0.3&lt;br&gt;&lt;/font&gt;" style="text;html=1;strokeColor=none;fillColor=none;align=center;verticalAlign=middle;whiteSpace=wrap;rounded=0;" parent="1" vertex="1">
          <mxGeometry x="335" y="429" width="90" height="30" as="geometry" />
        </mxCell>
        <mxCell id="SD3PxVuOXYKt10OMola7-50" value="" style="endArrow=classic;html=1;rounded=0;" parent="1" edge="1">
          <mxGeometry width="50" height="50" relative="1" as="geometry">
            <mxPoint x="440" y="488" as="sourcePoint" />
            <mxPoint x="320" y="488" as="targetPoint" />
          </mxGeometry>
        </mxCell>
        <mxCell id="SD3PxVuOXYKt10OMola7-51" value="&lt;font style=&quot;font-size: 11px;&quot;&gt;DHCP Ack&lt;br&gt;&lt;/font&gt;" style="text;html=1;strokeColor=none;fillColor=none;align=center;verticalAlign=middle;whiteSpace=wrap;rounded=0;" parent="1" vertex="1">
          <mxGeometry x="335" y="467" width="90" height="18" as="geometry" />
        </mxCell>
        <mxCell id="SD3PxVuOXYKt10OMola7-52" value="&lt;font style=&quot;font-size: 11px;&quot;&gt;DHCP Discover&lt;/font&gt;" style="text;html=1;strokeColor=none;fillColor=none;align=center;verticalAlign=middle;whiteSpace=wrap;rounded=0;" parent="1" vertex="1">
          <mxGeometry x="335" y="330" width="90" height="30" as="geometry" />
        </mxCell>
        <mxCell id="SD3PxVuOXYKt10OMola7-53" value="" style="endArrow=none;html=1;rounded=0;" parent="1" edge="1">
          <mxGeometry width="50" height="50" relative="1" as="geometry">
            <mxPoint x="560" y="160" as="sourcePoint" />
            <mxPoint x="560" y="580" as="targetPoint" />
          </mxGeometry>
        </mxCell>
        <mxCell id="SD3PxVuOXYKt10OMola7-54" value="User" style="text;html=1;strokeColor=none;fillColor=none;align=center;verticalAlign=middle;whiteSpace=wrap;rounded=0;" parent="1" vertex="1">
          <mxGeometry x="530" y="130" width="60" height="30" as="geometry" />
        </mxCell>
        <mxCell id="mokTt5v66lGXCYtnPHAn-1" value="" style="rounded=0;whiteSpace=wrap;html=1;" vertex="1" parent="1">
          <mxGeometry x="450" y="497" width="80" height="3" as="geometry" />
        </mxCell>
        <mxCell id="mokTt5v66lGXCYtnPHAn-2" value="IP Pool" style="text;html=1;align=center;verticalAlign=middle;resizable=0;points=[];autosize=1;strokeColor=none;fillColor=none;" vertex="1" parent="1">
          <mxGeometry x="465" y="477" width="50" height="20" as="geometry" />
        </mxCell>
        <mxCell id="mokTt5v66lGXCYtnPHAn-4" value="" style="endArrow=classic;html=1;rounded=0;" edge="1" parent="1">
          <mxGeometry width="50" height="50" relative="1" as="geometry">
            <mxPoint x="560" y="530" as="sourcePoint" />
            <mxPoint x="440" y="530" as="targetPoint" />
          </mxGeometry>
        </mxCell>
        <mxCell id="mokTt5v66lGXCYtnPHAn-5" value="&lt;font style=&quot;font-size: 11px;&quot;&gt;DHCP Discover&lt;/font&gt;" style="text;html=1;strokeColor=none;fillColor=none;align=center;verticalAlign=middle;whiteSpace=wrap;rounded=0;" vertex="1" parent="1">
          <mxGeometry x="455" y="500" width="90" height="30" as="geometry" />
        </mxCell>
        <mxCell id="mokTt5v66lGXCYtnPHAn-6" value="" style="endArrow=classic;html=1;rounded=0;" edge="1" parent="1">
          <mxGeometry width="50" height="50" relative="1" as="geometry">
            <mxPoint x="440" y="560.0000000000001" as="sourcePoint" />
            <mxPoint x="560" y="560" as="targetPoint" />
          </mxGeometry>
        </mxCell>
        <mxCell id="mokTt5v66lGXCYtnPHAn-7" value="&lt;font style=&quot;font-size: 11px;&quot;&gt;DHCP Pool IP lack&lt;/font&gt;" style="text;html=1;strokeColor=none;fillColor=none;align=center;verticalAlign=middle;whiteSpace=wrap;rounded=0;" vertex="1" parent="1">
          <mxGeometry x="450" y="530" width="105" height="30" as="geometry" />
        </mxCell>
        <mxCell id="mokTt5v66lGXCYtnPHAn-8" value="Attacker" style="text;html=1;strokeColor=none;fillColor=none;align=center;verticalAlign=middle;whiteSpace=wrap;rounded=0;" vertex="1" parent="1">
          <mxGeometry x="290" y="584" width="60" height="30" as="geometry" />
        </mxCell>
        <mxCell id="mokTt5v66lGXCYtnPHAn-9" value="DHCP Server" style="text;html=1;strokeColor=none;fillColor=none;align=center;verticalAlign=middle;whiteSpace=wrap;rounded=0;" vertex="1" parent="1">
          <mxGeometry x="400" y="584" width="80" height="30" as="geometry" />
        </mxCell>
        <mxCell id="mokTt5v66lGXCYtnPHAn-10" value="User" style="text;html=1;strokeColor=none;fillColor=none;align=center;verticalAlign=middle;whiteSpace=wrap;rounded=0;" vertex="1" parent="1">
          <mxGeometry x="530" y="584" width="60" height="30" as="geometry" />
        </mxCell>
      </root>
    </mxGraphModel>
  </diagram>
</mxfile>
